<svg width="30" height="30" viewBox="0 0 30 30" fill="none" xmlns="http://www.w3.org/2000/svg">
<path d="M20.0757 26.9323C20.4272 26.5807 20.6247 26.1038 20.6247 25.6067C20.6247 25.1095 20.4272 24.6327 20.0757 24.281L10.7945 14.9998L20.0757 5.71848C20.4173 5.36488 20.6063 4.89128 20.602 4.39968C20.5977 3.90808 20.4005 3.43778 20.0529 3.09008C19.7053 2.74248 19.235 2.54528 18.7434 2.54098C18.2518 2.53678 17.7781 2.72578 17.4245 3.06728L6.81756 13.6742C6.46606 14.0258 6.26867 14.5026 6.26867 14.9998C6.26867 15.497 6.46606 15.9738 6.81756 16.3254L17.4245 26.9323C17.7761 27.2838 18.2529 27.4813 18.7501 27.4813C19.2473 27.4813 19.7241 27.2838 20.0757 26.9323Z" fill="#F2785C"/>
</svg>
